{
  "accessors": [
    {
      "bufferView": 2,
      "componentType": 5126,
      "count": 65532,
      "max": [
        39.79767990112305,
        39.420040130615234,
        1.4144200086593628
      ],
      "min": [
        -48.488521575927734,
        -40.80556106567383,
        -73.0794906616211
      ],
      "type": "VEC3"
    },
    {
      "bufferView": 2,
      "byteOffset": 786384,
      "componentType": 5126,
      "count": 65532,
      "max": [
        0.9999588131904602,
        0.9998370409011841,
        0.9999932050704956
      ],
      "min": [
        -0.9999470114707947,
        -0.9999961853027344,
        -0.9995677471160889
      ],
      "type": "VEC3"
    },
    {
      "bufferView": 1,
      "componentType": 5126,
      "count": 65532,
      "max": [
        0.9993900060653687,
        0.9968900084495544
      ],
      "min": [
        0.002950000111013651,
        0.004490000195801258
      ],
      "type": "VEC2"
    },
    {
      "bufferView": 0,
      "componentType": 5125,
      "count": 319005,
      "type": "SCALAR"
    },
    {
      "bufferView": 2,
      "byteOffset": 1572768,
      "componentType": 5126,
      "count": 65533,
      "max": [
        48.488521575927734,
        40.79167938232422,
        -24.62537956237793
      ],
      "min": [
        -48.444339752197266,
        -40.72174072265625,
        -74.0810775756836
      ],
      "type": "VEC3"
    },
    {
      "bufferView": 2,
      "byteOffset": 2359164,
      "componentType": 5126,
      "count": 65533,
      "max": [
        0.9998651742935181,
        0.9998082518577576,
        0.9980517625808716
      ],
      "min": [
        -0.9988045692443848,
        -0.9999926686286926,
        -1.0
      ],
      "type": "VEC3"
    },
    {
      "bufferView": 1,
      "byteOffset": 524256,
      "componentType": 5126,
      "count": 65533,
      "max": [
        0.9993900060653687,
        0.9196699857711792
      ],
      "min": [
        0.003289999905973673,
        0.038279999047517776
      ],
      "type": "VEC2"
    },
    {
      "bufferView": 0,
      "byteOffset": 1276020,
      "componentType": 5125,
      "count": 195045,
      "type": "SCALAR"
    },
    {
      "bufferView": 2,
      "byteOffset": 3145560,
      "componentType": 5126,
      "count": 65533,
      "max": [
        40.82353973388672,
        38.53081130981445,
        -69.29974365234375
      ],
      "min": [
        -42.24042892456055,
        -37.455810546875,
        -74.08155059814453
      ],
      "type": "VEC3"
    },
    {
      "bufferView": 2,
      "byteOffset": 3931956,
      "componentType": 5126,
      "count": 65533,
      "max": [
        0.8462516069412231,
        0.9408550262451172,
        0.9315308332443237
      ],
      "min": [
        -0.9768767952919006,
        -0.9907096028327942,
        -1.0
      ],
      "type": "VEC3"
    },
    {
      "bufferView": 1,
      "byteOffset": 1048520,
      "componentType": 5126,
      "count": 65533,
      "max": [
        0.9993900060653687,
        0.7928699851036072
      ],
      "min": [
        0.0029800001066178083,
        0.06351999938488007
      ],
      "type": "VEC2"
    },
    {
      "bufferView": 0,
      "byteOffset": 2056200,
      "componentType": 5125,
      "count": 66429,
      "type": "SCALAR"
    },
    {
      "bufferView": 2,
      "byteOffset": 4718352,
      "componentType": 5126,
      "count": 18058,
      "max": [
        48.488521575927734,
        40.80556106567383,
        -34.96141052246094
      ],
      "min": [
        -48.488521575927734,
        -40.793758392333984,
        -70.31009674072266
      ],
      "type": "VEC3"
    },
    {
      "bufferView": 2,
      "byteOffset": 4935048,
      "componentType": 5126,
      "count": 18058,
      "max": [
        0.9998651742935181,
        0.9999013543128967,
        0.9837899208068848
      ],
      "min": [
        -0.9997571706771851,
        -0.9997676014900208,
        -0.9738745093345642
      ],
      "type": "VEC3"
    },
    {
      "bufferView": 1,
      "byteOffset": 1572784,
      "componentType": 5126,
      "count": 18058,
      "max": [
        0.9437299966812134,
        0.8925899863243103
      ],
      "min": [
        0.00279999990016222,
        0.011459999717772007
      ],
      "type": "VEC2"
    },
    {
      "bufferView": 0,
      "byteOffset": 2321916,
      "componentType": 5125,
      "count": 67173,
      "type": "SCALAR"
    }
  ],
  "asset": {
    "extras": {
      "author": "Ronen (https://sketchfab.com/ronenh)",
      "license": "CC-BY-ND-4.0 (http://creativecommons.org/licenses/by-nd/4.0/)",
      "source": "https://sketchfab.com/3d-models/roll-cake-ec245e2a737c40cc82d42ee2e7adba43",
      "title": "Roll-cake"
    },
    "generator": "Sketchfab-12.65.0",
    "version": "2.0"
  },
  "bufferViews": [
    {
      "buffer": 0,
      "byteLength": 2590608,
      "name": "floatBufferViews",
      "target": 34963
    },
    {
      "buffer": 0,
      "byteLength": 1717248,
      "byteOffset": 2590608,
      "byteStride": 8,
      "name": "floatBufferViews",
      "target": 34962
    },
    {
      "buffer": 0,
      "byteLength": 5151744,
      "byteOffset": 4307856,
      "byteStride": 12,
      "name": "floatBufferViews",
      "target": 34962
    }
  ],
  "buffers": [
    {
      "byteLength": 9459600,
      "uri": "scene.bin"
    }
  ],
  "extensionsUsed": [
    "KHR_materials_unlit"
  ],
  "images": [
    {
      "uri": "textures/material0_baseColor.jpeg"
    }
  ],
  "materials": [
    {
      "doubleSided": true,
      "emissiveTexture": {
        "index": 0
      },
      "extensions": {
        "KHR_materials_unlit": {}
      },
      "name": "material0",
      "pbrMetallicRoughness": {
        "baseColorTexture": {
          "index": 0
        },
        "metallicFactor": 0.0
      }
    }
  ],
  "meshes": [
    {
      "name": "Object_0",
      "primitives": [
        {
          "attributes": {
            "NORMAL": 1,
            "POSITION": 0,
            "TEXCOORD_0": 2
          },
          "indices": 3,
          "material": 0,
          "mode": 4
        }
      ]
    },
    {
      "name": "Object_1",
      "primitives": [
        {
          "attributes": {
            "NORMAL": 5,
            "POSITION": 4,
            "TEXCOORD_0": 6
          },
          "indices": 7,
          "material": 0,
          "mode": 4
        }
      ]
    },
    {
      "name": "Object_2",
      "primitives": [
        {
          "attributes": {
            "NORMAL": 9,
            "POSITION": 8,
            "TEXCOORD_0": 10
          },
          "indices": 11,
          "material": 0,
          "mode": 4
        }
      ]
    },
    {
      "name": "Object_3",
      "primitives": [
        {
          "attributes": {
            "NORMAL": 13,
            "POSITION": 12,
            "TEXCOORD_0": 14
          },
          "indices": 15,
          "material": 0,
          "mode": 4
        }
      ]
    }
  ],
  "nodes": [
    {
      "children": [
        1
      ],
      "matrix": [
        1.0,
        0.0,
        0.0,
        0.0,
        0.0,
        2.220446049250313e-16,
        -1.0,
        0.0,
        0.0,
        1.0,
        2.220446049250313e-16,
        0.0,
        0.0,
        0.0,
        0.0,
        1.0
      ],
      "name": "Sketchfab_model"
    },
    {
      "children": [
        2,
        3,
        4,
        5
      ],
      "name": "model_Roll-cake_20201030_192634384.obj.cleaner.materialmerger.gles"
    },
    {
      "mesh": 0,
      "name": "Object_2"
    },
    {
      "mesh": 1,
      "name": "Object_3"
    },
    {
      "mesh": 2,
      "name": "Object_4"
    },
    {
      "mesh": 3,
      "name": "Object_5"
    }
  ],
  "samplers": [
    {
      "magFilter": 9729,
      "minFilter": 9987,
      "wrapS": 10497,
      "wrapT": 10497
    }
  ],
  "scene": 0,
  "scenes": [
    {
      "name": "Sketchfab_Scene",
      "nodes": [
        0
      ]
    }
  ],
  "textures": [
    {
      "sampler": 0,
      "source": 0
    }
  ]
}
