{
  "accessors": [
    {
      "bufferView": 2,
      "componentType": 5126,
      "count": 65532,
      "max": [
        0.04226775839924812,
        0.041694894433021545,
        0.06510096043348312
      ],
      "min": [
        -0.028011957183480263,
        -0.03169684112071991,
        -6.725088610437524e-07
      ],
      "type": "VEC3"
    },
    {
      "bufferView": 2,
      "byteOffset": 786384,
      "componentType": 5126,
      "count": 65532,
      "max": [
        0.9999982714653015,
        0.9999827742576599,
        0.9999974370002747
      ],
      "min": [
        -0.9999891519546509,
        -0.9999929666519165,
        -1.0
      ],
      "type": "VEC3"
    },
    {
      "bufferView": 1,
      "componentType": 5126,
      "count": 65532,
      "max": [
        0.9990180730819702,
        0.9794920682907104
      ],
      "min": [
        0.0009765625,
        0.0010034037986770272
      ],
      "type": "VEC2"
    },
    {
      "bufferView": 1,
      "byteOffset": 524256,
      "componentType": 5126,
      "count": 65532,
      "max": [
        0.9990180730819702,
        0.9794920682907104
      ],
      "min": [
        0.0009765625,
        0.0010034037986770272
      ],
      "type": "VEC2"
    },
    {
      "bufferView": 0,
      "componentType": 5125,
      "count": 309525,
      "type": "SCALAR"
    },
    {
      "bufferView": 2,
      "byteOffset": 1572768,
      "componentType": 5126,
      "count": 26148,
      "max": [
        0.04236266762018204,
        0.04035673663020134,
        0.0652020126581192
      ],
      "min": [
        -0.027945922687649727,
        -0.03169705346226692,
        -7.400738155638464e-08
      ],
      "type": "VEC3"
    },
    {
      "bufferView": 2,
      "byteOffset": 1886544,
      "componentType": 5126,
      "count": 26148,
      "max": [
        0.9999650120735168,
        0.99989914894104,
        0.9999966025352478
      ],
      "min": [
        -0.9998853802680969,
        -0.999979555606842,
        -0.9998956322669983
      ],
      "type": "VEC3"
    },
    {
      "bufferView": 1,
      "byteOffset": 1048512,
      "componentType": 5126,
      "count": 26148,
      "max": [
        0.9989850521087646,
        0.9649587273597717
      ],
      "min": [
        0.0009765625,
        0.000990409986115992
      ],
      "type": "VEC2"
    },
    {
      "bufferView": 1,
      "byteOffset": 1257696,
      "componentType": 5126,
      "count": 26148,
      "max": [
        0.9989850521087646,
        0.9649587273597717
      ],
      "min": [
        0.0009765625,
        0.000990409986115992
      ],
      "type": "VEC2"
    },
    {
      "bufferView": 0,
      "byteOffset": 1238100,
      "componentType": 5125,
      "count": 87411,
      "type": "SCALAR"
    }
  ],
  "asset": {
    "extras": {
      "author": "M Parkinson (https://sketchfab.com/chimaera_studio)",
      "license": "CC-BY-4.0 (http://creativecommons.org/licenses/by/4.0/)",
      "source": "https://sketchfab.com/3d-models/chocolate-mousse-cake-d07b23210db44830a76a8fb5ddb49c95",
      "title": "Chocolate Mousse Cake"
    },
    "generator": "Sketchfab-15.30.0",
    "version": "2.0"
  },
  "bufferViews": [
    {
      "buffer": 0,
      "byteLength": 1587744,
      "name": "floatBufferViews",
      "target": 34963
    },
    {
      "buffer": 0,
      "byteLength": 1466880,
      "byteOffset": 1587744,
      "byteStride": 8,
      "name": "floatBufferViews",
      "target": 34962
    },
    {
      "buffer": 0,
      "byteLength": 2200320,
      "byteOffset": 3054624,
      "byteStride": 12,
      "name": "floatBufferViews",
      "target": 34962
    }
  ],
  "buffers": [
    {
      "byteLength": 5254944,
      "uri": "scene.bin"
    }
  ],
  "extensionsUsed": [
    "KHR_materials_unlit"
  ],
  "images": [
    {
      "uri": "textures/tex_u1_v1_baseColor.jpeg"
    }
  ],
  "materials": [
    {
      "doubleSided": true,
      "extensions": {
        "KHR_materials_unlit": {}
      },
      "name": "tex_u1_v1",
      "pbrMetallicRoughness": {
        "baseColorTexture": {
          "index": 0
        },
        "metallicFactor": 0.0
      }
    }
  ],
  "meshes": [
    {
      "name": "model_tex_u1_v1_0",
      "primitives": [
        {
          "attributes": {
            "NORMAL": 1,
            "POSITION": 0,
            "TEXCOORD_0": 2,
            "TEXCOORD_1": 3
          },
          "indices": 4,
          "material": 0,
          "mode": 4
        }
      ]
    },
    {
      "name": "model_tex_u1_v1_0",
      "primitives": [
        {
          "attributes": {
            "NORMAL": 6,
            "POSITION": 5,
            "TEXCOORD_0": 7,
            "TEXCOORD_1": 8
          },
          "indices": 9,
          "material": 0,
          "mode": 4
        }
      ]
    }
  ],
  "nodes": [
    {
      "children": [
        1
      ],
      "matrix": [
        1.0,
        0.0,
        0.0,
        0.0,
        0.0,
        2.220446049250313e-16,
        -1.0,
        0.0,
        0.0,
        1.0,
        2.220446049250313e-16,
        0.0,
        0.0,
        0.0,
        0.0,
        1.0
      ],
      "name": "Sketchfab_model"
    },
    {
      "children": [
        2
      ],
      "matrix": [
        1.0,
        0.0,
        0.0,
        0.0,
        0.0,
        0.0,
        1.0,
        0.0,
        0.0,
        -1.0,
        0.0,
        0.0,
        0.0,
        0.0,
        0.0,
        1.0
      ],
      "name": "model.fbx"
    },
    {
      "children": [
        3
      ],
      "name": "RootNode"
    },
    {
      "children": [
        4,
        5
      ],
      "matrix": [
        1.0,
        0.0,
        0.0,
        0.0,
        0.0,
        2.220446049250313e-16,
        -1.0,
        0.0,
        0.0,
        1.0,
        2.220446049250313e-16,
        0.0,
        0.0,
        0.0,
        0.0,
        1.0
      ],
      "name": "model"
    },
    {
      "mesh": 0,
      "name": "model_tex_u1_v1_0"
    },
    {
      "mesh": 1,
      "name": "model_tex_u1_v1_0"
    }
  ],
  "samplers": [
    {
      "magFilter": 9729,
      "minFilter": 9987,
      "wrapS": 10497,
      "wrapT": 10497
    }
  ],
  "scene": 0,
  "scenes": [
    {
      "name": "Sketchfab_Scene",
      "nodes": [
        0
      ]
    }
  ],
  "textures": [
    {
      "sampler": 0,
      "source": 0
    }
  ]
}
